Coordinates
version=1
nRows=24
nColumns=22
inDegrees=yes

Units are S.I. units (second, meters, Newtons, ...)
If the header above contains a line with 'inDegrees', this indicates whether rotational values are in degrees (yes) or radians (no).

endheader
time	pelvis_tilt	pelvis_list	pelvis_rotation	pelvis_tx	pelvis_ty	pelvis_tz	hip_flexion_r	hip_adduction_r	hip_rotation_r	knee_angle_r	ankle_angle_r	subtalar_angle_r	hip_flexion_l	hip_adduction_l	hip_rotation_l	knee_angle_l	ankle_angle_l	subtalar_angle_l	lumbar_extension	lumbar_bending	lumbar_rotation
      3.58000000	     -3.11021198	     -2.81382048	    -40.07909619	      1.29518571	      0.86727238	      1.06268376	     16.04026285	      0.90574713	      2.53723190	    -23.71695091	     12.33883532	      2.14347949	     15.55634439	     -8.56679458	     -2.15052783	    -30.56222216	     18.82633471	      9.51769876	     -1.94087667	      3.73939059	     14.96325018
      3.59000000	     -3.37839856	     -2.50593490	    -40.51106441	      1.29608555	      0.86800214	      1.06524126	     16.01312003	      0.98285095	      2.90118679	    -23.10181598	     12.12493327	      2.30789542	     15.37475130	     -8.63722193	     -2.54557226	    -29.94463711	     18.65665474	      9.55498007	     -1.66966787	      3.69007179	     15.22961993
      3.60000000	     -3.63078394	     -2.22025062	    -40.80321644	      1.29707258	      0.86873744	      1.06764777	     15.89850745	      1.03834423	      3.17162549	    -22.40830954	     11.94144214	      2.42657890	     15.19086414	     -8.67733401	     -2.80825961	    -29.30857039	     18.48588099	      9.59799264	     -1.40992290	      3.64210151	     15.32142538
      3.61000000	     -3.90129856	     -1.93832635	    -40.94930252	      1.29814186	      0.86936738	      1.06985000	     15.77277278	      1.07233188	      3.30553365	    -21.69248499	     11.75834067	      2.44822517	     15.08036199	     -8.69224118	     -2.92556614	    -28.70686961	     18.29225786	      9.60042458	     -1.12619258	      3.60568344	     15.24077084
      3.62000000	     -4.15525337	     -1.69376742	    -41.00241404	      1.29926998	      0.86993446	      1.07190906	     15.59475220	      1.10159068	      3.36948106	    -20.96640279	     11.60867683	      2.44744424	     14.97701525	     -8.70188789	     -2.95793170	    -28.14307612	     18.13036899	      9.58424508	     -0.88072053	      3.58553590	     15.05785302
      3.63000000	     -4.38859622	     -1.51286703	    -40.94585587	      1.30049811	      0.87045171	      1.07378682	     15.34714349	      1.13275981	      3.30632927	    -20.23624662	     11.49084743	      2.41351449	     14.87496408	     -8.71607499	     -2.87210739	    -27.63909206	     18.01723311	      9.50827371	     -0.69751390	      3.60083862	     14.76507546
      3.64000000	     -4.63802512	     -1.31741983	    -40.83520290	      1.30169521	      0.87078053	      1.07549506	     15.18568392	      1.15114486	      3.20935548	    -19.61417774	     11.38436026	      2.38833470	     14.85522871	     -8.71311812	     -2.72150574	    -27.20008437	     17.90381174	      9.42394652	     -0.49705215	      3.61218664	     14.39323883
      3.65000000	     -4.87943380	     -1.16853028	    -40.65656606	      1.30293920	      0.87100844	      1.07702003	     15.02221439	      1.17545419	      3.00916864	    -19.05609654	     11.32170686	      2.35816816	     14.86271147	     -8.72123371	     -2.49073399	    -26.84200665	     17.85619953	      9.27716206	     -0.34028130	      3.65922756	     13.96541994
      3.66000000	     -5.11203285	     -1.04876415	    -40.44811233	      1.30417949	      0.87111951	      1.07839377	     14.89310230	      1.20534397	      2.75523678	    -18.60030470	     11.31964741	      2.30996011	     14.90016139	     -8.73571010	     -2.22584794	    -26.56728870	     17.88312297	      8.95674624	     -0.21632472	      3.72682548	     13.52551843
      3.67000000	     -5.32691802	     -0.93073506	    -40.22856413	      1.30536176	      0.87113874	      1.07962957	     14.82607751	      1.22153879	      2.50257095	    -18.26672536	     11.30075939	      2.29142368	     14.95419824	     -8.73454491	     -1.94407336	    -26.32791332	     17.88449327	      8.80062168	     -0.11483672	      3.78475983	     13.08103922
      3.68000000	     -5.52617258	     -0.83741110	    -39.99564602	      1.30651130	      0.87106826	      1.08074893	     14.79635422	      1.24295767	      2.22692579	    -18.04324521	     11.35030811	      2.25865657	     15.02047256	     -8.73982659	     -1.66267443	    -26.15018274	     17.95524796	      8.57051567	     -0.04479344	      3.85409094	     12.66145749
      3.69000000	     -5.69729059	     -0.75076777	    -39.76810768	      1.30760171	      0.87093416	      1.08177942	     14.81170347	      1.25331008	      1.97320722	    -17.93883097	     11.43426014	      2.20648451	     15.08075679	     -8.73485747	     -1.41095072	    -26.00222653	     18.04334758	      8.30963497	     -0.00322098	      3.91039667	     12.28805307
      3.70000000	     -5.84595806	     -0.66015293	    -39.56984428	      1.30858205	      0.87074283	      1.08279833	     14.87395152	      1.26107941	      1.77769440	    -17.93032368	     11.54406231	      2.11455926	     15.12893768	     -8.72290707	     -1.19761833	    -25.86392351	     18.13897536	      7.97702580	      0.02474517	      3.93884535	     11.99160280
      3.71000000	     -5.92806569	     -0.58388811	    -39.38191506	      1.30950342	      0.87055935	      1.08377702	     14.93241226	      1.23962150	      1.60367592	    -18.02704843	     11.70634856	      2.04893065	     15.12303948	     -8.69053966	     -1.04895393	    -25.74401499	     18.24891423	      7.84725621	     -0.01309823	      3.92963983	     11.73178369
      3.72000000	     -5.98931918	     -0.51579951	    -39.23539324	      1.31031398	      0.87035824	      1.08478566	     15.00914980	      1.23060449	      1.51316858	    -18.18355156	     11.88089752	      1.99032575	     15.07814283	     -8.66711603	     -0.93649711	    -25.60640792	     18.38766236	      7.75977771	     -0.06969922	      3.90298103	     11.58654296
      3.73000000	     -6.02462311	     -0.41537799	    -39.08867455	      1.31106960	      0.87013366	      1.08575373	     15.12095859	      1.17842640	      1.41354887	    -18.39466960	     12.05503195	      1.84236527	     15.04119538	     -8.60271473	     -0.86043700	    -25.47066606	     18.44165749	      7.55152043	     -0.11699360	      3.82304142	     11.44477739
      3.74000000	     -6.03726189	     -0.35807285	    -38.99309040	      1.31175853	      0.86994563	      1.08679499	     15.19089710	      1.16294347	      1.36768429	    -18.60809921	     12.23562454	      1.79830520	     14.94480504	     -8.58430235	     -0.86358488	    -25.34040501	     18.57701313	      7.51612693	     -0.20620101	      3.75702904	     11.41523964
      3.75000000	     -6.02326634	     -0.27518016	    -38.91845334	      1.31241844	      0.86977136	      1.08783368	     15.26626508	      1.11151171	      1.33807115	    -18.83600714	     12.42686520	      1.73780331	     14.82862991	     -8.53028655	     -0.89165306	    -25.18792156	     18.66576485	      7.46618419	     -0.28886794	      3.64375069	     11.42339304
      3.76000000	     -6.00108504	     -0.18788308	    -38.87412274	      1.31305501	      0.86962484	      1.08891499	     15.32653641	      1.05841253	      1.33385457	    -19.03936247	     12.60033040	      1.68037655	     14.69863628	     -8.47613480	     -0.94948605	    -25.03225968	     18.74158410	      7.40316065	     -0.35887709	      3.51165254	     11.48645930
      3.77000000	     -5.96657289	     -0.08575348	    -38.85948953	      1.31369896	      0.86952127	      1.09001904	     15.36116394	      0.98977659	      1.36778208	    -19.19309613	     12.75708813	      1.61781673	     14.55436173	     -8.40770359	     -1.05744023	    -24.86514633	     18.77334610	      7.28195175	     -0.41310740	      3.35610312	     11.57284429
      3.78000000	     -5.95651092	     -0.00589829	    -38.85327837	      1.31435754	      0.86943791	      1.09111756	     15.37670910	      0.95219838	      1.37494900	    -19.30061526	     12.88484112	      1.58829114	     14.42075933	     -8.37132386	     -1.13900360	    -24.70978325	     18.83233573	      7.14908095	     -0.44634133	      3.23547776	     11.70596861
      3.79000000	     -5.97095359	      0.05829058	    -38.84431019	      1.31505982	      0.86937201	      1.09219848	     15.37861117	      0.93873420	      1.37204152	    -19.36969622	     12.98384480	      1.58038155	     14.30344527	     -8.35695626	     -1.18349429	    -24.56713669	     18.89698694	      7.02843755	     -0.44809222	      3.14686625	     11.85137859
      3.80000000	     -5.98942898	      0.12453100	    -38.84688798	      1.31580274	      0.86934617	      1.09329408	     15.35501477	      0.92517978	      1.37072754	    -19.38651694	     13.08192166	      1.57932561	     14.18222023	     -8.34170062	     -1.23449397	    -24.41559284	     18.93854649	      6.83414744	     -0.42582237	      3.05756401	     12.00908757
      3.81000000	     -6.01473354	      0.17558735	    -38.83348040	      1.31660811	      0.86936561	      1.09435274	     15.28884482	      0.91802214	      1.33408994	    -19.33497055	     13.14310192	      1.58438542	     14.07464743	     -8.33558443	     -1.27777800	    -24.29174205	     18.96291094	      6.47619658	     -0.39121565	      2.98784124	     12.14784083
